<svg width="37" height="37" viewBox="0 0 37 37" fill="none" xmlns="http://www.w3.org/2000/svg">
<rect width="37" height="37" rx="6" fill="#4B5563"/>
<path d="M16.784 20.824C16.7307 20.952 16.6773 21.0427 16.624 21.096L16.432 21.384C16.336 21.512 16.2293 21.6347 16.112 21.752L15.824 22.008C15.8133 22.2 15.8027 22.392 15.792 22.584C15.792 22.776 15.7867 22.9733 15.776 23.176C15.7653 23.272 15.7653 23.368 15.776 23.464C15.7867 23.5707 15.7653 23.6667 15.712 23.752C15.6693 23.8053 15.648 23.768 15.648 23.64C15.6587 23.512 15.664 23.4107 15.664 23.336C15.6533 23.1547 15.6427 22.968 15.632 22.776C15.632 22.5733 15.6213 22.3813 15.6 22.2C15.5253 22.2853 15.4613 22.392 15.408 22.52C15.3547 22.648 15.312 22.7653 15.28 22.872C15.216 23.0533 15.152 23.24 15.088 23.432C15.024 23.624 14.9547 23.8107 14.88 23.992C14.848 24.0773 14.816 24.1627 14.784 24.248C14.752 24.344 14.7093 24.4293 14.656 24.504C14.6453 24.5147 14.624 24.5307 14.592 24.552C14.5707 24.5733 14.5493 24.5893 14.528 24.6C14.4533 24.6107 14.3893 24.5627 14.336 24.456C14.2827 24.36 14.2453 24.2907 14.224 24.248C14.2133 24.2267 14.1973 24.2053 14.176 24.184C14.1653 24.1627 14.16 24.1413 14.16 24.12C14.1493 23.96 14.1387 23.7947 14.128 23.624C14.128 23.464 14.1173 23.2987 14.096 23.128C14.0533 23.192 14.0053 23.256 13.952 23.32C13.9093 23.384 13.8613 23.448 13.808 23.512C13.7867 23.5333 13.776 23.544 13.776 23.544C13.7653 23.5653 13.7493 23.5813 13.728 23.592C13.7067 23.6133 13.6853 23.6347 13.664 23.656C13.6533 23.6773 13.632 23.7147 13.6 23.768C13.5787 23.832 13.5573 23.8747 13.536 23.896C13.5147 23.9173 13.4933 23.9173 13.472 23.896C13.44 23.8747 13.4133 23.8267 13.392 23.752C13.3813 23.688 13.3653 23.64 13.344 23.608C13.3013 23.576 13.264 23.5333 13.232 23.48C13.2 23.4267 13.1733 23.3787 13.152 23.336C13.1307 23.304 13.1093 23.2667 13.088 23.224C13.0773 23.2773 13.0667 23.336 13.056 23.4C13.056 23.4747 13.0453 23.5387 13.024 23.592C13.024 23.592 13.0027 23.592 12.96 23.592C12.928 23.592 12.896 23.5867 12.864 23.576C12.832 23.576 12.8 23.576 12.768 23.576C12.6933 23.5653 12.64 23.5547 12.608 23.544H12.512C12.4587 23.576 12.3733 23.576 12.256 23.544C12.2453 23.5333 12.2293 23.5227 12.208 23.512C12.1973 23.5013 12.192 23.5013 12.192 23.512C12.1707 23.704 12.16 23.8907 12.16 24.072C12.16 24.264 12.1493 24.4507 12.128 24.632C12.1173 24.6747 12.1067 24.6533 12.096 24.568C12.0853 24.4933 12.0747 24.4347 12.064 24.392C12.0533 24.2213 12.048 24.0507 12.048 23.88C12.0587 23.7093 12.0427 23.5387 12 23.368C11.9893 23.304 11.9787 23.3093 11.968 23.384C11.968 23.4587 11.968 23.5493 11.968 23.656C11.968 23.7627 11.9573 23.8427 11.936 23.896C11.9253 23.9387 11.9147 23.9173 11.904 23.832C11.904 23.7573 11.8987 23.6987 11.888 23.656L11.792 23.16H11.776C10.72 23.1387 9.80267 22.952 9.024 22.6C8.24533 22.248 7.64267 21.7307 7.216 21.048C7.14133 20.9627 7.07733 20.8613 7.024 20.744C6.98133 20.6267 6.944 20.5147 6.912 20.408L6.816 20.184V20.168C6.79467 20.104 6.77333 20.04 6.752 19.976C6.73067 19.912 6.70933 19.848 6.688 19.784C6.64533 19.624 6.61333 19.416 6.592 19.16C6.57067 18.904 6.56 18.6533 6.56 18.408C6.56 18.152 6.56 17.944 6.56 17.784C6.56 17.5707 6.56 17.3573 6.56 17.144C6.56 16.92 6.56533 16.7067 6.576 16.504V16.376C6.576 16.2267 6.576 16.072 6.576 15.912C6.58667 15.752 6.608 15.5973 6.64 15.448C6.64 15.4267 6.64 15.4107 6.64 15.4C6.65067 15.3893 6.656 15.3787 6.656 15.368C6.752 14.7813 6.944 14.2587 7.232 13.8C7.328 13.608 7.456 13.432 7.616 13.272C8.576 12.184 10.016 11.64 11.936 11.64H12.272C12.2933 11.64 12.3093 11.6453 12.32 11.656C12.3733 11.656 12.4213 11.656 12.464 11.656C12.5173 11.656 12.5653 11.6613 12.608 11.672C12.64 11.6613 12.6667 11.6613 12.688 11.672C12.72 11.672 12.752 11.672 12.784 11.672L13.056 11.72C13.1627 11.7307 13.264 11.7467 13.36 11.768C13.4667 11.7893 13.5733 11.8107 13.68 11.832C13.7973 11.8427 13.9307 11.8747 14.08 11.928C14.0907 11.928 14.096 11.9333 14.096 11.944C14.1067 11.944 14.1173 11.944 14.128 11.944C14.2133 11.9547 14.2933 11.976 14.368 12.008C14.4533 12.0293 14.5227 12.0613 14.576 12.104C15.2587 12.3813 15.8453 12.7973 16.336 13.352C16.4853 13.5013 16.6187 13.704 16.736 13.96C16.928 14.3227 17.072 14.7013 17.168 15.096C17.2 15.1707 17.216 15.2613 17.216 15.368L17.264 15.672C17.2747 15.7893 17.28 15.9067 17.28 16.024C17.2907 16.1413 17.296 16.2587 17.296 16.376C17.3067 16.536 17.312 16.7333 17.312 16.968C17.312 17.2027 17.312 17.4373 17.312 17.672C17.312 17.9067 17.312 18.104 17.312 18.264C17.3013 18.4667 17.296 18.6747 17.296 18.888C17.296 19.0907 17.2693 19.288 17.216 19.48C17.1413 19.9707 16.9973 20.4187 16.784 20.824ZM11.264 19.752C11.328 19.8373 11.3973 19.912 11.472 19.976C11.5787 19.9973 11.7067 20.0187 11.856 20.04H12.048C12.08 20.0293 12.112 20.024 12.144 20.024C12.1867 20.024 12.224 20.0187 12.256 20.008C12.4587 19.9547 12.624 19.8587 12.752 19.72C12.8053 19.6667 12.8533 19.6027 12.896 19.528C12.9387 19.4533 12.9707 19.3787 12.992 19.304L13.04 19.128C13.0827 18.9467 13.104 18.7707 13.104 18.6C13.1147 18.4187 13.1253 18.264 13.136 18.136V17.032C13.136 16.904 13.136 16.776 13.136 16.648C13.136 16.5093 13.1307 16.376 13.12 16.248C13.12 16.1733 13.12 16.104 13.12 16.04C13.12 15.9653 13.1147 15.896 13.104 15.832C13.0933 15.8107 13.088 15.7893 13.088 15.768C13.088 15.736 13.0827 15.7147 13.072 15.704C13.072 15.672 13.0613 15.624 13.04 15.56C13.008 15.432 12.96 15.3253 12.896 15.24C12.832 15.144 12.7573 15.0587 12.672 14.984L12.656 14.968C12.6133 14.9467 12.5867 14.936 12.576 14.936C12.5547 14.9253 12.5173 14.92 12.464 14.92C12.4533 14.92 12.4427 14.9253 12.432 14.936C12.4213 14.9467 12.4 14.9573 12.368 14.968C12.3573 14.968 12.3467 14.968 12.336 14.968C12.336 14.9573 12.3253 14.952 12.304 14.952C12.2613 14.9627 12.2133 14.9893 12.16 15.032C12.1067 15.0747 12.064 15.112 12.032 15.144C12.0107 15.1547 11.9787 15.1707 11.936 15.192C11.8933 15.2133 11.8667 15.2347 11.856 15.256C11.8133 15.3093 11.792 15.3573 11.792 15.4C11.792 15.4427 11.7493 15.4587 11.664 15.448C11.5893 15.448 11.5573 15.4373 11.568 15.416C11.5893 15.3947 11.5733 15.3467 11.52 15.272C11.5093 15.2507 11.4933 15.2347 11.472 15.224C11.4507 15.2133 11.4293 15.2027 11.408 15.192C11.4187 15.192 11.4027 15.1813 11.36 15.16C11.328 15.128 11.3067 15.1067 11.296 15.096C11.296 15.096 11.2907 15.096 11.28 15.096C11.28 15.0853 11.2587 15.0587 11.216 15.016C11.1947 14.984 11.1893 14.9787 11.2 15C11.2213 15.0107 11.216 15.0107 11.184 15C11.184 15 11.1787 15 11.168 15C11.168 15 11.168 15.0053 11.168 15.016C11.1467 15.0373 11.12 15.064 11.088 15.096C11.056 15.1173 11.0133 15.1707 10.96 15.256C10.8853 15.3947 10.8373 15.5333 10.816 15.672C10.7947 15.8 10.7733 15.928 10.752 16.056C10.752 16.1093 10.7467 16.184 10.736 16.28C10.736 16.376 10.736 16.4667 10.736 16.552V17.784C10.736 17.8693 10.736 17.9547 10.736 18.04C10.7467 18.1147 10.7573 18.1947 10.768 18.28C10.8 18.504 10.8587 18.7653 10.944 19.064L10.992 19.192C11.0347 19.2987 11.0773 19.4 11.12 19.496C11.1627 19.5813 11.2107 19.6667 11.264 19.752ZM29.155 17.528V18.024C29.155 18.1947 29.1497 18.3867 29.139 18.6C29.139 18.8133 29.123 19.0107 29.091 19.192C29.059 19.384 29.0217 19.5707 28.979 19.752C28.9363 19.9227 28.883 20.0933 28.819 20.264C28.7763 20.3813 28.739 20.488 28.707 20.584C28.675 20.6693 28.6323 20.7387 28.579 20.792C28.579 20.8027 28.5737 20.808 28.563 20.808C28.563 20.808 28.563 20.8133 28.563 20.824C28.4883 20.9627 28.419 21.0747 28.355 21.16C28.3123 21.2347 28.259 21.3093 28.195 21.384C28.131 21.448 28.067 21.512 28.003 21.576C27.9497 21.6293 27.891 21.6827 27.827 21.736C27.7737 21.7893 27.7203 21.8427 27.667 21.896C27.667 21.896 27.6617 21.896 27.651 21.896C27.651 21.896 27.651 21.9013 27.651 21.912C27.5977 21.9653 27.5443 22.0453 27.491 22.152C27.4803 22.1627 27.475 22.1733 27.475 22.184C27.475 22.1947 27.4697 22.2053 27.459 22.216L27.411 22.296C27.4003 22.3067 27.3897 22.3227 27.379 22.344C27.379 22.3547 27.3737 22.36 27.363 22.36C27.3203 22.4347 27.267 22.504 27.203 22.568C27.1497 22.6107 27.0857 22.664 27.011 22.728C26.947 22.7813 26.8777 22.8187 26.803 22.84H26.723C26.7123 22.8827 26.6963 22.9307 26.675 22.984C26.6643 23.0267 26.6483 23.0693 26.627 23.112C26.6163 23.1227 26.6057 23.1387 26.595 23.16C26.595 23.1813 26.5843 23.2027 26.563 23.224C26.5523 23.2347 26.5417 23.2453 26.531 23.256C26.5203 23.2667 26.515 23.2827 26.515 23.304C26.5043 23.4213 26.4937 23.5973 26.483 23.832C26.483 24.0667 26.4777 24.312 26.467 24.568C26.467 24.8347 26.467 25.0853 26.467 25.32C26.467 25.5547 26.4617 25.7307 26.451 25.848C26.451 25.8587 26.4297 25.8427 26.387 25.8C26.3763 25.768 26.3657 25.736 26.355 25.704C26.355 25.672 26.3443 25.64 26.323 25.608L26.163 24.888C26.1097 24.728 26.083 24.5307 26.083 24.296C26.083 24.0613 26.083 23.8267 26.083 23.592C26.0937 23.368 26.0777 23.176 26.035 23.016C26.035 23.016 26.0297 23.016 26.019 23.016C26.019 23.0267 26.019 23.0373 26.019 23.048C26.019 23.0587 26.0137 23.0587 26.003 23.048C25.9923 23.0373 25.9817 23.032 25.971 23.032C25.9497 23.0213 25.9283 23.0053 25.907 22.984C25.8963 22.9733 25.8803 22.9627 25.859 22.952C25.8483 22.9413 25.8323 22.9307 25.811 22.92C25.7683 22.9627 25.7363 23.0053 25.715 23.048C25.6937 23.0693 25.683 23.0853 25.683 23.096L25.587 23.208C25.4697 23.3573 25.379 23.5227 25.315 23.704L25.219 23.992C25.1763 24.12 25.1283 24.2533 25.075 24.392C25.0217 24.5413 24.9417 24.6747 24.835 24.792C24.771 24.856 24.7443 24.8773 24.755 24.856C24.7763 24.8453 24.787 24.8347 24.787 24.824L24.723 24.888C24.6803 24.9093 24.659 24.9253 24.659 24.936C24.659 24.9573 24.6323 24.9733 24.579 24.984C24.5683 24.984 24.547 24.9787 24.515 24.968C24.4937 24.9573 24.4723 24.9573 24.451 24.968C24.4403 24.968 24.4297 24.968 24.419 24.968C24.4083 24.9787 24.3923 24.984 24.371 24.984L24.259 25.064C24.2377 25.0747 24.2057 25.096 24.163 25.128C24.131 25.16 24.099 25.16 24.067 25.128C24.0563 25.1173 24.0457 25.1013 24.035 25.08C24.035 25.0587 24.0243 25.0427 24.003 25.032C23.9923 25.0213 23.9817 25.0213 23.971 25.032C23.9603 25.0533 23.9497 25.0587 23.939 25.048C23.9283 25.0373 23.9177 25.0267 23.907 25.016C23.8963 25.0053 23.8857 24.9947 23.875 24.984C23.8323 24.9627 23.7897 24.9307 23.747 24.888C23.7043 24.8453 23.6617 24.808 23.619 24.776C23.5763 24.7333 23.539 24.7013 23.507 24.68C23.4857 24.7333 23.475 24.7867 23.475 24.84C23.475 24.904 23.4643 24.9627 23.443 25.016C23.4323 25.0587 23.4163 25.096 23.395 25.128C23.3843 25.16 23.379 25.192 23.379 25.224C23.3683 25.3413 23.363 25.512 23.363 25.736C23.363 25.9707 23.363 26.216 23.363 26.472C23.363 26.728 23.3577 26.968 23.347 27.192C23.3363 27.4267 23.3203 27.6027 23.299 27.72C23.2883 27.816 23.2777 27.832 23.267 27.768C23.267 27.704 23.2617 27.5973 23.251 27.448C23.251 27.2987 23.2457 27.144 23.235 26.984C23.235 26.8347 23.235 26.712 23.235 26.616C23.2243 26.456 23.2137 26.2533 23.203 26.008C23.203 25.7627 23.1977 25.5173 23.187 25.272C23.187 25.0373 23.1817 24.84 23.171 24.68C23.1283 24.712 23.091 24.7493 23.059 24.792C22.995 24.8667 22.9363 24.9413 22.883 25.016C22.8297 25.0907 22.7603 25.1547 22.675 25.208C22.6643 25.2933 22.6537 25.3787 22.643 25.464C22.6323 25.5493 22.6217 25.6347 22.611 25.72C22.6003 25.88 22.579 26.0347 22.547 26.184C22.5257 26.3333 22.5043 26.4827 22.483 26.632C22.4723 26.696 22.4617 26.7547 22.451 26.808C22.451 26.872 22.4403 26.9307 22.419 26.984C22.4083 27.0267 22.3977 27.0907 22.387 27.176C22.3763 27.272 22.3657 27.2987 22.355 27.256C22.3337 27.0107 22.323 26.744 22.323 26.456C22.323 26.1787 22.3123 25.9227 22.291 25.688C22.291 25.6773 22.2803 25.672 22.259 25.672C22.2377 25.672 22.227 25.6773 22.227 25.688C22.2057 25.9227 22.195 26.1893 22.195 26.488C22.195 26.7867 22.1843 27.0587 22.163 27.304C22.163 27.3467 22.1523 27.3307 22.131 27.256C22.1203 27.1813 22.1097 27.128 22.099 27.096C22.067 26.9787 22.0403 26.8453 22.019 26.696C21.9977 26.5467 21.9763 26.424 21.955 26.328C21.9337 26.136 21.9123 25.944 21.891 25.752C21.8803 25.5707 21.859 25.3893 21.827 25.208L21.731 25.112C21.699 25.0587 21.667 25.0053 21.635 24.952C21.6137 24.9093 21.5923 24.8667 21.571 24.824C21.4857 24.632 21.4057 24.44 21.331 24.248C21.267 24.056 21.1923 23.8693 21.107 23.688L20.867 23.192C20.8563 23.1707 20.851 23.1547 20.851 23.144C20.851 23.1333 20.8457 23.1227 20.835 23.112C20.8137 23.1547 20.803 23.2027 20.803 23.256C20.8137 23.32 20.803 23.3787 20.771 23.432C20.7603 23.4427 20.7497 23.4267 20.739 23.384C20.7283 23.352 20.7177 23.3307 20.707 23.32C20.6963 23.256 20.6803 23.208 20.659 23.176C20.659 23.1973 20.6483 23.2187 20.627 23.24C20.6163 23.2613 20.595 23.288 20.563 23.32C20.531 23.352 20.499 23.384 20.467 23.416C20.4457 23.448 20.419 23.4747 20.387 23.496C20.3337 23.5707 20.291 23.656 20.259 23.752C20.2377 23.8587 20.2163 23.9547 20.195 24.04C20.1843 24.0827 20.1737 24.1253 20.163 24.168C20.163 24.2107 20.1523 24.2533 20.131 24.296C20.1203 24.3387 20.1097 24.4027 20.099 24.488C20.0883 24.5733 20.0777 24.5947 20.067 24.552C19.9497 24.4347 19.8963 24.3867 19.907 24.408C19.9177 24.44 19.9497 24.4933 20.003 24.568C20.0563 24.6533 20.0883 24.7227 20.099 24.776C20.1097 24.84 20.0563 24.8453 19.939 24.792C19.8323 24.76 19.779 24.6853 19.779 24.568C19.7897 24.4507 19.811 24.3173 19.843 24.168C19.8857 24.0187 19.8963 23.8907 19.875 23.784C19.875 23.7627 19.8643 23.7413 19.843 23.72C19.8323 23.6987 19.827 23.6987 19.827 23.72C19.8163 23.7733 19.811 23.8533 19.811 23.96C19.811 24.0667 19.811 24.152 19.811 24.216C19.811 24.2907 19.795 24.3013 19.763 24.248C19.7097 24.1307 19.6937 24.008 19.715 23.88C19.7363 23.752 19.7363 23.6293 19.715 23.512C19.7043 23.448 19.6777 23.3947 19.635 23.352C19.6137 23.3413 19.5923 23.3253 19.571 23.304C19.5497 23.2827 19.5283 23.2667 19.507 23.256C19.4963 23.256 19.4857 23.2613 19.475 23.272C19.475 23.2933 19.4697 23.3093 19.459 23.32C19.427 23.32 19.411 23.3253 19.411 23.336C19.4003 23.4213 19.4003 23.5333 19.411 23.672C19.4323 23.8213 19.443 23.944 19.443 24.04C19.4537 24.136 19.4217 24.1627 19.347 24.12C19.2403 24.0347 19.2083 23.9067 19.251 23.736C19.3043 23.5653 19.3203 23.4107 19.299 23.272C19.299 23.2507 19.2937 23.224 19.283 23.192C19.2723 23.16 19.2563 23.1547 19.235 23.176C19.2137 23.208 19.2083 23.256 19.219 23.32C19.2297 23.384 19.219 23.4107 19.187 23.4C19.1443 23.3787 19.1283 23.3413 19.139 23.288C19.1603 23.2347 19.1657 23.1867 19.155 23.144L19.043 22.984C19.0003 22.9627 18.963 22.9413 18.931 22.92C18.8137 22.8347 18.755 22.7173 18.755 22.568V19.56C18.5523 19.2293 18.403 18.92 18.307 18.632C18.2217 18.3333 18.2057 18.0933 18.259 17.912C18.323 17.7307 18.4883 17.64 18.755 17.64V12.68C18.755 12.616 18.7497 12.5467 18.739 12.472C18.739 12.3867 18.7443 12.3067 18.755 12.232C18.755 12.1253 18.7817 12.04 18.835 11.976C18.8777 11.912 18.9363 11.864 19.011 11.832C19.075 11.8107 19.1283 11.8 19.171 11.8C19.2243 11.7893 19.2777 11.7893 19.331 11.8C19.395 11.8 19.4537 11.8 19.507 11.8H23.507C23.6777 11.8 23.8483 11.8 24.019 11.8C24.1897 11.8 24.3603 11.8107 24.531 11.832C25.7043 11.928 26.691 12.28 27.491 12.888C27.555 12.9307 27.603 12.968 27.635 13C27.667 13.0213 27.6937 13.0427 27.715 13.064C27.907 13.224 28.0937 13.4213 28.275 13.656C28.403 13.7947 28.5097 13.9547 28.595 14.136C28.7977 14.5093 28.947 14.9307 29.043 15.4C29.043 15.4107 29.043 15.416 29.043 15.416C29.0537 15.416 29.059 15.4213 29.059 15.432C29.0697 15.4747 29.0803 15.5227 29.091 15.576C29.1017 15.6187 29.107 15.6667 29.107 15.72C29.139 15.8587 29.155 16.008 29.155 16.168C29.1763 16.6693 29.1763 17.1227 29.155 17.528ZM22.819 14.968L22.723 14.872C22.6057 14.7547 22.5577 14.7013 22.579 14.712C22.6003 14.7227 22.6377 14.76 22.691 14.824C22.755 14.888 22.7763 14.9413 22.755 14.984V19.688C22.755 20.4667 22.6643 21.0373 22.483 21.4C22.3123 21.7627 22.0777 21.96 21.779 21.992C21.491 22.024 21.1763 21.944 20.835 21.752C20.4937 21.5493 20.1577 21.2773 19.827 20.936C19.4963 20.5947 19.1977 20.232 18.931 19.848C18.675 19.464 18.483 19.1013 18.355 18.76C18.227 18.408 18.195 18.1307 18.259 17.928C18.3337 17.7147 18.531 17.6187 18.851 17.64C19.171 17.6507 19.6457 17.8267 20.275 18.168C20.915 18.4987 21.7417 19.0373 22.755 19.784L22.883 19.88H23.555C23.6937 19.88 23.827 19.8747 23.955 19.864C24.0937 19.8427 24.2323 19.8107 24.371 19.768C24.4563 19.736 24.5363 19.688 24.611 19.624C24.6217 19.624 24.627 19.624 24.627 19.624C24.627 19.6133 24.6323 19.608 24.643 19.608C24.6643 19.5867 24.6857 19.56 24.707 19.528C24.7283 19.496 24.7497 19.464 24.771 19.432C24.835 19.3253 24.883 19.2133 24.915 19.096C24.9577 18.968 24.9897 18.8507 25.011 18.744C25.011 18.7333 25.011 18.7227 25.011 18.712C25.0217 18.6907 25.027 18.6747 25.027 18.664C25.0483 18.6 25.059 18.536 25.059 18.472C25.0697 18.3973 25.0803 18.328 25.091 18.264C25.091 18.1467 25.091 18.0187 25.091 17.88C25.1017 17.7307 25.107 17.5813 25.107 17.432V17.192C25.107 17.0853 25.1017 16.984 25.091 16.888C25.091 16.7813 25.091 16.6747 25.091 16.568C25.091 16.536 25.0857 16.4827 25.075 16.408C25.075 16.3227 25.075 16.2427 25.075 16.168C25.0643 16.0507 25.043 15.944 25.011 15.848C24.9897 15.7413 24.9523 15.64 24.899 15.544C24.899 15.544 24.8883 15.5227 24.867 15.48C24.8563 15.4587 24.835 15.432 24.803 15.4C24.803 15.3893 24.7923 15.3733 24.771 15.352L24.675 15.256C24.6003 15.192 24.5257 15.16 24.451 15.16C24.3763 15.16 24.2963 15.1707 24.211 15.192C24.1257 15.2027 24.035 15.224 23.939 15.256C23.843 15.2773 23.747 15.2933 23.651 15.304C23.6083 15.3147 23.5603 15.3253 23.507 15.336C23.4643 15.336 23.4217 15.3307 23.379 15.32C23.3043 15.2987 23.2297 15.2667 23.155 15.224C23.0803 15.1707 23.011 15.1227 22.947 15.08C22.8937 15.0267 22.851 14.9893 22.819 14.968Z" fill="white"/>
</svg>
