<svg width="30" height="30" viewBox="0 0 30 30" fill="none" xmlns="http://www.w3.org/2000/svg">
<path d="M3.09375 0C3.09375 0 2.29688 1.63373 2.29688 4.41176C2.29688 6.25919 2.64844 7.27941 2.90625 7.77574C1.10156 9.98851 0 12.9665 0 16.8199C0 26.6912 5.29102 30 15 30C24.709 30 30 26.6912 30 16.8199C30 12.8286 28.957 9.83686 27.2344 7.66544C27.6621 6.15579 28.1543 3.30193 26.9531 0C23.373 0 20.3555 3.24678 20.25 3.36397C18.5801 2.92969 16.8164 2.70221 15 2.70221C13.1426 2.70221 11.3145 2.97794 9.60938 3.47426C7.21289 0.668658 4.33008 0 3.09375 0ZM19.8281 14.1176C20.7305 14.1039 21.5801 14.2142 22.3125 14.5037C24.2695 15.2826 25.5 17.5506 25.5 20.0735C25.4941 27.0703 22.4941 28.2353 14.8125 28.2353C9.09961 28.2353 4.45312 26.9738 4.45312 20.2941C4.45312 17.7436 5.57812 16.2822 6.375 15.386C8.12695 13.4145 10.8867 14.3934 14.8125 14.3934C16.5938 14.3934 18.3223 14.1383 19.8281 14.1176ZM9 17.6471C8.17383 17.6471 7.5 18.8327 7.5 20.2941C7.5 21.7555 8.17383 22.9412 9 22.9412C9.82617 22.9412 10.5 21.7555 10.5 20.2941C10.5 18.8327 9.82617 17.6471 9 17.6471ZM21 17.6471C20.1738 17.6471 19.5 18.8327 19.5 20.2941C19.5 21.7555 20.1738 22.9412 21 22.9412C21.8262 22.9412 22.5 21.7555 22.5 20.2941C22.5 18.8327 21.8262 17.6471 21 17.6471Z" fill="#A9ADB3"/>
</svg>
